Patient4_TMGait_0pt3_02_right_19_GRF.mot
version=1
nRows=32
nColumns=19
inDegrees=no
endheader
time	F1x	F1y	F1z	M1x	M1y	M1z	F2x	F2y	F2z	M2x	M2y	M2z	EC1x	EC1y	EC1z	EC2x	EC2y	EC2z
36	-10.0145	656.3085	32.266	-252.6146	-34.3099	635.2952	14.3246	102.8434	-12.1638	38.5145	4.9887	77.2064	-0.0592	0.0182	-0.0073	-0.0462	0.0165	0.9585
36.021	-9.4639	672.1205	33.8943	-259.1291	-35.3827	647.8128	12.2091	91.6557	-10.3695	34.1882	4.1552	68.5417	-0.0592	0.0182	-0.0073	-0.0462	0.0165	0.9585
36.042	-8.8867	694.7156	36.2091	-268.2629	-36.9537	665.7685	9.7383	77.9929	-8.5244	28.9741	3.4377	58.1573	-0.0592	0.0182	-0.0073	-0.0462	0.0165	0.9585
36.063	-8.2753	723.5598	39.2546	-279.7705	-39.0652	688.6875	7.0649	62.7693	-6.7147	23.2262	2.8615	46.7598	-0.0592	0.0182	-0.0073	-0.0462	0.0165	0.9585
36.084	-7.6207	756.4532	42.973	-292.7622	-41.6828	714.6553	4.4584	47.3277	-5.0013	17.4445	2.3811	35.3338	-0.0592	0.0182	-0.0073	-0.0462	0.0165	0.9585
36.105	-6.9251	789.8029	47.1976	-305.8127	-44.6851	740.5504	2.2451	33.1217	-3.447	12.1609	1.9249	24.9162	-0.0592	0.0182	-0.0073	-0.0462	0.0165	0.9585
36.126	-6.1718	819.3852	51.6522	-317.2681	-47.8452	762.7007	0.64385	21.3068	-2.1322	7.7913	1.4669	16.3077	-0.0592	0.0182	-0.0073	-0.0462	0.0165	0.9585
36.147	-5.2982	841.2526	55.9659	-325.6071	-50.8248	777.6685	-0.39264	12.3979	-1.1296	4.5144	1.0684	9.8499	-0.0592	0.0182	-0.0073	-0.0462	0.0165	0.9585
36.168	-4.1909	852.5524	59.7125	-329.7626	-53.2102	782.9633	-0.98819	6.2494	-0.43505	2.2668	0.75877	5.4053	-0.0592	0.0182	-0.0073	-0.0462	0.0165	0.9585
36.189	-2.7104	852.0404	62.486	-329.3115	-54.5909	777.5003	-1.272	2.3487	0.00029614	0.85129	0.53659	2.5599	-0.0592	0.0182	-0.0073	-0.0462	0.0165	0.9585
36.21	-0.74771	840.2596	63.967	-324.5296	-54.6392	761.7815	-1.3532	0.041643	0.24459	0.020529	0.38214	0.80234	-0.0592	0.0182	-0.0073	-0.0462	0.0165	0.9585
36.231	1.7648	819.5093	63.9798	-316.3595	-53.1643	737.8689	-1.3094	-1.3244	0.36517	-0.46897	0.26808	-0.37087	-0.0592	0.0182	-0.0073	-0.0462	0.0165	0.9585
36.252	4.8663	793.4376	62.5714	-306.2419	-50.1862	709.0211	-1.1864	-2.3139	0.41951	-0.82606	0.16344	-1.3954	-0.0592	0.0182	-0.0073	-0.0462	0.0165	0.9585
36.273	8.5559	766.3542	60.0365	-295.842	-45.9626	679.0886	-1.0021	-3.3457	0.45095	-1.2049	0.041103	-2.5885	-0.0592	0.0182	-0.0073	-0.0462	0.0165	0.9585
36.294	12.7787	742.4266	56.8498	-286.7417	-40.9316	651.789	-0.74979	-4.652	0.48445	-1.6901	-0.11441	-4.1142	-0.0592	0.0182	-0.0073	-0.0462	0.0165	0.9585
36.315	17.4484	724.9432	53.5338	-280.1679	-35.5878	630.0527	-0.40428	-6.2426	0.52628	-2.2842	-0.30904	-5.942	-0.0592	0.0182	-0.0073	-0.0462	0.0165	0.9585
36.336	22.4445	715.7193	50.5413	-276.7746	-30.3797	615.5305	0.06976	-7.8591	0.56286	-2.8894	-0.53598	-7.7835	-0.0592	0.0182	-0.0073	-0.0462	0.0165	0.9585
36.357	27.5793	714.6902	48.2108	-276.4926	-25.6846	608.2627	0.70708	-8.9175	0.55738	-3.2861	-0.76832	-9.0314	-0.0592	0.0182	-0.0073	-0.0462	0.0165	0.9585
36.378	32.6323	719.9423	46.7401	-278.5444	-21.7793	606.7187	1.5234	-8.4521	0.44977	-3.1124	-0.95013	-8.6901	-0.0592	0.0182	-0.0073	-0.0462	0.0165	0.9585
36.399	37.3802	728.1916	46.1695	-281.6338	-18.8127	608.2164	2.4908	-5.079	0.15844	-1.8509	-0.98738	-5.3357	-0.0592	0.0182	-0.0073	-0.0462	0.0165	0.9585
36.42	41.6082	735.5	46.3952	-284.2272	-16.8172	609.5292	3.5084	2.9777	-0.4152	1.1616	-0.74102	2.8565	-0.0592	0.0182	-0.0073	-0.0462	0.0165	0.9585
36.441	45.1348	738.0133	47.1908	-284.8434	-15.7108	607.4981	4.3671	17.7492	-1.3769	6.6847	-0.02372	17.9799	-0.0592	0.0182	-0.0073	-0.0462	0.0165	0.9585
36.462	47.8319	732.5259	48.2221	-282.2747	-15.2953	599.5001	4.7071	41.2184	-2.8162	15.4592	1.3894	42.0897	-0.0592	0.0182	-0.0073	-0.0462	0.0165	0.9585
36.483	49.6111	716.7996	49.1006	-275.6987	-15.299	583.7037	3.9306	74.8318	-4.7739	28.0234	3.758	76.696	-0.0592	0.0182	-0.0073	-0.0462	0.0165	0.9585
36.504	50.3784	689.7119	49.4612	-264.7276	-15.4562	559.2172	1.2418	119.0125	-7.226	44.5298	7.3389	122.263	-0.0592	0.0182	-0.0073	-0.0462	0.0165	0.9585
36.525	50.0226	651.3209	49.009	-249.4312	-15.5496	526.1348	-3.5996	173.0745	-10.1284	64.7037	12.1612	178.1071	-0.0592	0.0182	-0.0073	-0.0462	0.0165	0.9585
36.546	48.4658	602.8362	47.5359	-230.3211	-15.4093	485.4759	-10.095	234.858	-13.4999	87.698	18.0434	241.9618	-0.0592	0.0182	-0.0073	-0.0462	0.0165	0.9585
36.567	45.7239	546.5001	44.9637	-208.2985	-14.9282	439.0541	-17.3319	300.1447	-17.4708	111.8837	24.7606	309.3704	-0.0592	0.0182	-0.0073	-0.0462	0.0165	0.9585
36.588	41.9497	485.4412	41.3886	-184.5924	-14.0834	389.3386	-24.1351	364.0282	-21.9405	135.4041	31.7529	375.0979	-0.0592	0.0182	-0.0073	-0.0462	0.0165	0.9585
36.609	37.4284	423.2795	37.0673	-160.6019	-12.929	339.1468	-29.4931	422.8483	-26.3526	156.9237	38.061	435.1977	-0.0592	0.0182	-0.0073	-0.0462	0.0165	0.9585
36.63	32.4915	363.4469	32.348	-137.6343	-11.5807	291.1401	-32.765	474.143	-30.0876	175.5904	42.8295	487.0284	-0.0592	0.0182	-0.0073	-0.0462	0.0165	0.9585
36.651	27.4792	308.8226	27.6116	-116.7627	-10.185	247.5377	-33.7345	516.2398	-32.7046	190.8542	45.5714	528.8509	-0.0592	0.0182	-0.0073	-0.0462	0.0165	0.9585
